<svg xmlns="http://www.w3.org/2000/svg" version="1.1" xmlns:xlink="http://www.w3.org/1999/xlink" xmlns:svgjs="http://svgjs.dev/svgjs" width="2000" height="1500" viewBox="0 0 2000 1500"><rect width="2000" height="1500" fill="#aaadb2"></rect><g transform="matrix(0.75,0,0,0.75,249.090909090909,642.90710723759)"><svg viewBox="0 0 396 56" data-background-color="#aaadb2" preserveAspectRatio="xMidYMid meet" height="282" width="2000" xmlns="http://www.w3.org/2000/svg" xmlns:xlink="http://www.w3.org/1999/xlink"><g id="tight-bounds" transform="matrix(1,0,0,1,0.2400000000000091,0.35556498673739156)"><svg viewBox="0 0 395.52 55.288870026525196" height="55.288870026525196" width="395.52"><g><svg viewBox="0 0 395.52 55.288870026525196" height="55.288870026525196" width="395.52"><g><svg viewBox="0 0 395.52 55.288870026525196" height="55.288870026525196" width="395.52"><g id="textblocktransform"><svg viewBox="0 0 395.52 55.288870026525196" height="55.288870026525196" width="395.52" id="textblock"><g><svg viewBox="0 0 395.52 55.288870026525196" height="55.288870026525196" width="395.52"><g transform="matrix(1,0,0,1,0,0)"><svg width="395.52" viewBox="1.98 -38.09 276.09999999999997 38.6" height="55.288870026525196" data-palette-color="url(#f72c519c-1b7f-4a7e-b4f8-bb9d105fe0ff)"></svg></g></svg></g></svg></g></svg></g></svg></g><defs></defs><mask id="a83041c8-7ee4-42e2-a64a-d4c270bfd2dc"><g id="SvgjsG10684"><svg viewBox="0 0 395.52 55.288870026525196" height="55.288870026525196" width="395.52"><g><svg viewBox="0 0 395.52 55.288870026525196" height="55.288870026525196" width="395.52"><g><svg viewBox="0 0 395.52 55.288870026525196" height="55.288870026525196" width="395.52"><g id="SvgjsG10683"><svg viewBox="0 0 395.52 55.288870026525196" height="55.288870026525196" width="395.52" id="SvgjsSvg10682"><g><svg viewBox="0 0 395.52 55.288870026525196" height="55.288870026525196" width="395.52"><g transform="matrix(1,0,0,1,0,0)"><svg width="395.52" viewBox="1.98 -38.09 276.09999999999997 38.6" height="55.288870026525196" data-palette-color="url(#f72c519c-1b7f-4a7e-b4f8-bb9d105fe0ff)"><path d="M10.77-20.26L23.88-20.26 23.88-16.48 10.77-16.48 10.77-3.61 24.68-3.61 25.22-8.52 29.05-8.52 29.05 0 1.98 0 1.98-3.08 5.96-3.76 5.96-31.76 1.98-32.45 1.98-35.55 28.3-35.55 28.3-27 24.44-27 23.9-31.84 10.77-31.84 10.77-20.26ZM45.31 0.51L45.31 0.51Q41.01 0.51 38.6-2.25 36.18-5 36.18-10.84L36.18-10.84 36.18-22.63 33.15-23.32 33.15-26.42 40.99-26.42 40.99-10.79Q40.99-6.57 42.23-4.98 43.48-3.39 46.12-3.39L46.12-3.39Q48.68-3.39 50.35-4.43 52.02-5.47 52.88-7.37L52.88-7.37 52.88-22.63 49.34-23.32 49.34-26.42 57.69-26.42 57.69-3.76 60.72-3.08 60.72 0 53.37 0 53.05-3.91Q51.8-1.78 49.84-0.63 47.87 0.51 45.31 0.51ZM72.82-18.73L72.82-18.73 72.82-3.76 76.8-3.08 76.8 0 64.03 0 64.03-3.08 68.01-3.76 68.01-22.63 64.03-23.32 64.03-26.42 72.31-26.42 72.72-23.05 72.77-22.58Q73.9-24.61 75.54-25.76 77.19-26.9 79.32-26.9L79.32-26.9Q80.07-26.9 80.87-26.77 81.66-26.64 82-26.51L82-26.51 81.37-22.05 78.02-22.24Q76.12-22.36 74.82-21.37 73.53-20.39 72.82-18.73ZM96.87 0.51L96.87 0.51Q93.23 0.51 90.57-1.22L90.57-1.22Q87.91-2.95 86.47-5.98 85.03-9.01 85.03-12.92L85.03-12.92 85.03-13.45Q85.03-17.33 86.47-20.41L86.47-20.41Q87.91-23.46 90.56-25.18 93.21-26.9 96.82-26.9L96.82-26.9Q100.46-26.9 103.14-25.17L103.14-25.17Q105.78-23.44 107.22-20.41 108.66-17.38 108.66-13.45L108.66-13.45 108.66-12.92Q108.66-9.03 107.22-5.96L107.22-5.96Q105.78-2.93 103.14-1.21 100.51 0.51 96.87 0.51ZM96.87-3.25L96.87-3.25Q99.16-3.25 100.72-4.52L100.72-4.52Q102.26-5.76 103.06-7.95 103.85-10.13 103.85-12.92L103.85-12.92 103.85-13.45Q103.85-16.21 103.07-18.43L103.07-18.43Q102.26-20.61 100.7-21.86 99.14-23.12 96.82-23.12L96.82-23.12Q94.55-23.12 92.96-21.88L92.96-21.88Q91.4-20.61 90.62-18.42 89.84-16.24 89.84-13.45L89.84-13.45 89.84-12.92Q89.84-10.16 90.62-7.96L90.62-7.96Q91.4-5.76 92.97-4.5 94.55-3.25 96.87-3.25ZM165.05-29L153.5-1.27 150.3-1.27 138.37-28.96 138.24-28.93 138.42-14.06 138.42-3.76 142.71-3.08 142.71 0 129.94 0 129.94-3.08 133.92-3.76 133.92-31.76 129.94-32.45 129.94-35.55 140.34-35.55 151.79-8.57 151.94-8.57 163.02-35.55 173.74-35.55 173.74-32.45 169.76-31.76 169.76-3.76 173.74-3.08 173.74 0 160.97 0 160.97-3.08 165.17-3.76 165.17-28.98 165.05-29ZM186.39 0.51L186.39 0.51Q182.26 0.51 180.11-1.5 177.96-3.52 177.96-7.18L177.96-7.18Q177.96-9.72 179.36-11.57L179.36-11.57Q180.72-13.45 183.33-14.48 185.95-15.5 189.58-15.5L189.58-15.5 194.3-15.5 194.3-18.09Q194.3-20.48 192.84-21.8 191.39-23.12 188.75-23.12L188.75-23.12Q187.09-23.12 185.87-22.72 184.65-22.31 183.65-21.61L183.65-21.61 183.14-17.92 179.43-17.92 179.43-23.97Q183.02-26.9 188.83-26.9L188.83-26.9Q193.64-26.9 196.37-24.61 199.11-22.31 199.11-18.04L199.11-18.04 199.11-5.32Q199.11-4.81 199.12-4.32 199.13-3.83 199.18-3.34L199.18-3.34 201.74-3.08 201.74 0 194.83 0Q194.42-2 194.32-3.64L194.32-3.64Q192.93-1.86 190.84-0.67 188.75 0.51 186.39 0.51ZM187.09-3.52L187.09-3.52Q189.49-3.52 191.46-4.66 193.44-5.81 194.3-7.42L194.3-7.42 194.3-12.21 189.41-12.21Q186.09-12.21 184.43-10.62 182.77-9.03 182.77-7.08L182.77-7.08Q182.77-3.52 187.09-3.52ZM214.26-19.26L214.26-19.26 214.26-3.76 218.24-3.08 218.24 0 205.48 0 205.48-3.08 209.46-3.76 209.46-22.63 205.48-23.32 205.48-26.42 213.75-26.42 214.09-22.49Q215.41-24.58 217.4-25.74 219.39-26.9 221.93-26.9L221.93-26.9Q226.2-26.9 228.55-24.4 230.89-21.9 230.89-16.67L230.89-16.67 230.89-3.76 234.87-3.08 234.87 0 222.1 0 222.1-3.08 226.08-3.76 226.08-16.58Q226.08-20.07 224.7-21.53 223.32-23 220.49-23L220.49-23Q218.42-23 216.82-22 215.22-21 214.26-19.26ZM246.88-32.93L241.83-32.93 241.83-38.09 246.88-38.09 246.88-32.93ZM238.09-3.08L242.07-3.76 242.07-22.63 238.09-23.32 238.09-26.42 246.88-26.42 246.88-3.76 250.86-3.08 250.86 0 238.09 0 238.09-3.08ZM262.72 0.51L262.72 0.51Q258.6 0.51 256.45-1.5 254.3-3.52 254.3-7.18L254.3-7.18Q254.3-9.72 255.69-11.57L255.69-11.57Q257.06-13.45 259.67-14.48 262.28-15.5 265.92-15.5L265.92-15.5 270.63-15.5 270.63-18.09Q270.63-20.48 269.18-21.8 267.73-23.12 265.09-23.12L265.09-23.12Q263.43-23.12 262.21-22.72 260.99-22.31 259.99-21.61L259.99-21.61 259.47-17.92 255.76-17.92 255.76-23.97Q259.35-26.9 265.16-26.9L265.16-26.9Q269.97-26.9 272.71-24.61 275.44-22.31 275.44-18.04L275.44-18.04 275.44-5.32Q275.44-4.81 275.45-4.32 275.47-3.83 275.51-3.34L275.51-3.34 278.08-3.08 278.08 0 271.17 0Q270.75-2 270.66-3.64L270.66-3.64Q269.26-1.86 267.18-0.67 265.09 0.51 262.72 0.51ZM263.43-3.52L263.43-3.52Q265.82-3.52 267.8-4.66 269.78-5.81 270.63-7.42L270.63-7.42 270.63-12.21 265.75-12.21Q262.43-12.21 260.77-10.62 259.11-9.03 259.11-7.08L259.11-7.08Q259.11-3.52 263.43-3.52Z" opacity="1" transform="matrix(1,0,0,1,0,0)" fill="white" class="wordmark-text-0" id="SvgjsPath10681"></path></svg></g></svg></g></svg></g></svg></g></svg></g><defs><mask></mask></defs></svg><rect width="395.52" height="55.288870026525196" fill="black" stroke="none" visibility="hidden"></rect></g></mask><linearGradient x1="0.054" x2="0.941" y1="0.5" y2="0.5" id="f72c519c-1b7f-4a7e-b4f8-bb9d105fe0ff"><stop stop-color="#eaa79c" offset="0"></stop><stop stop-color="#f2e8cb" offset="0.498"></stop><stop stop-color="#eaa79c" offset="1"></stop></linearGradient><rect width="395.52" height="55.288870026525196" fill="url(#f72c519c-1b7f-4a7e-b4f8-bb9d105fe0ff)" mask="url(#a83041c8-7ee4-42e2-a64a-d4c270bfd2dc)" data-fill-palette-color="primary"></rect></svg><rect width="395.52" height="55.288870026525196" fill="none" stroke="none" visibility="hidden"></rect></g></svg></g></svg>